<?xml version="1.0" standalone="no"?>
<!DOCTYPE svg PUBLIC "-//W3C//DTD SVG 1.1//EN" "http://www.w3.org/Graphics/SVG/1.1/DTD/svg11.dtd">
<svg version="1.1" width="1200" height="566" onload="init(evt)" viewBox="0 0 1200 566" xmlns="http://www.w3.org/2000/svg" xmlns:xlink="http://www.w3.org/1999/xlink">
<!-- Flame graph stack visualization. See https://github.com/brendangregg/FlameGraph for latest version, and http://www.brendangregg.com/flamegraphs.html for examples. -->
<!-- NOTES:  -->
<defs>
	<linearGradient id="background" y1="0" y2="1" x1="0" x2="0" >
		<stop stop-color="#eeeeee" offset="5%" />
		<stop stop-color="#eeeeb0" offset="95%" />
	</linearGradient>
</defs>
<style type="text/css">
	text { font-family:Verdana; font-size:12px; fill:rgb(0,0,0); }
	#search, #ignorecase { opacity:0.1; cursor:pointer; }
	#search:hover, #search.show, #ignorecase:hover, #ignorecase.show { opacity:1; }
	#subtitle { text-anchor:middle; font-color:rgb(160,160,160); }
	#title { text-anchor:middle; font-size:17px}
	#unzoom { cursor:pointer; }
	#frames > *:hover { stroke:black; stroke-width:0.5; cursor:pointer; }
	.hide { display:none; }
	.parent { opacity:0.5; }
</style>
<script type="text/ecmascript">
<![CDATA[
	"use strict";
	var details, searchbtn, unzoombtn, matchedtxt, svg, searching, currentSearchTerm, ignorecase, ignorecaseBtn;
	function init(evt) {
		details = document.getElementById("details").firstChild;
		searchbtn = document.getElementById("search");
		ignorecaseBtn = document.getElementById("ignorecase");
		unzoombtn = document.getElementById("unzoom");
		matchedtxt = document.getElementById("matched");
		svg = document.getElementsByTagName("svg")[0];
		searching = 0;
		currentSearchTerm = null;

		// use GET parameters to restore a flamegraphs state.
		var params = get_params();
		if (params.x && params.y)
			zoom(find_group(document.querySelector('[x="' + params.x + '"][y="' + params.y + '"]')));
                if (params.s) search(params.s);
	}

	// event listeners
	window.addEventListener("click", function(e) {
		var target = find_group(e.target);
		if (target) {
			if (target.nodeName == "a") {
				if (e.ctrlKey === false) return;
				e.preventDefault();
			}
			if (target.classList.contains("parent")) unzoom(true);
			zoom(target);
			if (!document.querySelector('.parent')) {
				// we have basically done a clearzoom so clear the url
				var params = get_params();
				if (params.x) delete params.x;
				if (params.y) delete params.y;
				history.replaceState(null, null, parse_params(params));
				unzoombtn.classList.add("hide");
				return;
			}

			// set parameters for zoom state
			var el = target.querySelector("rect");
			if (el && el.attributes && el.attributes.y && el.attributes._orig_x) {
				var params = get_params()
				params.x = el.attributes._orig_x.value;
				params.y = el.attributes.y.value;
				history.replaceState(null, null, parse_params(params));
			}
		}
		else if (e.target.id == "unzoom") clearzoom();
		else if (e.target.id == "search") search_prompt();
		else if (e.target.id == "ignorecase") toggle_ignorecase();
	}, false)

	// mouse-over for info
	// show
	window.addEventListener("mouseover", function(e) {
		var target = find_group(e.target);
		if (target) details.nodeValue = "Function: " + g_to_text(target);
	}, false)

	// clear
	window.addEventListener("mouseout", function(e) {
		var target = find_group(e.target);
		if (target) details.nodeValue = ' ';
	}, false)

	// ctrl-F for search
	// ctrl-I to toggle case-sensitive search
	window.addEventListener("keydown",function (e) {
		if (e.keyCode === 114 || (e.ctrlKey && e.keyCode === 70)) {
			e.preventDefault();
			search_prompt();
		}
		else if (e.ctrlKey && e.keyCode === 73) {
			e.preventDefault();
			toggle_ignorecase();
		}
	}, false)

	// functions
	function get_params() {
		var params = {};
		var paramsarr = window.location.search.substr(1).split('&');
		for (var i = 0; i < paramsarr.length; ++i) {
			var tmp = paramsarr[i].split("=");
			if (!tmp[0] || !tmp[1]) continue;
			params[tmp[0]]  = decodeURIComponent(tmp[1]);
		}
		return params;
	}
	function parse_params(params) {
		var uri = "?";
		for (var key in params) {
			uri += key + '=' + encodeURIComponent(params[key]) + '&';
		}
		if (uri.slice(-1) == "&")
			uri = uri.substring(0, uri.length - 1);
		if (uri == '?')
			uri = window.location.href.split('?')[0];
		return uri;
	}
	function find_child(node, selector) {
		var children = node.querySelectorAll(selector);
		if (children.length) return children[0];
	}
	function find_group(node) {
		var parent = node.parentElement;
		if (!parent) return;
		if (parent.id == "frames") return node;
		return find_group(parent);
	}
	function orig_save(e, attr, val) {
		if (e.attributes["_orig_" + attr] != undefined) return;
		if (e.attributes[attr] == undefined) return;
		if (val == undefined) val = e.attributes[attr].value;
		e.setAttribute("_orig_" + attr, val);
	}
	function orig_load(e, attr) {
		if (e.attributes["_orig_"+attr] == undefined) return;
		e.attributes[attr].value = e.attributes["_orig_" + attr].value;
		e.removeAttribute("_orig_"+attr);
	}
	function g_to_text(e) {
		var text = find_child(e, "title").firstChild.nodeValue;
		return (text)
	}
	function g_to_func(e) {
		var func = g_to_text(e);
		// if there's any manipulation we want to do to the function
		// name before it's searched, do it here before returning.
		return (func);
	}
	function update_text(e) {
		var r = find_child(e, "rect");
		var t = find_child(e, "text");
		var w = parseFloat(r.attributes.width.value) -3;
		var txt = find_child(e, "title").textContent.replace(/\([^(]*\)$/,"");
		t.attributes.x.value = parseFloat(r.attributes.x.value) + 3;

		// Smaller than this size won't fit anything
		if (w < 2 * 12 * 0.59) {
			t.textContent = "";
			return;
		}

		t.textContent = txt;
		var sl = t.getSubStringLength(0, txt.length);
		// check if only whitespace or if we can fit the entire string into width w
		if (/^ *$/.test(txt) || sl < w)
			return;

		// this isn't perfect, but gives a good starting point
		// and avoids calling getSubStringLength too often
		var start = Math.floor((w/sl) * txt.length);
		for (var x = start; x > 0; x = x-2) {
			if (t.getSubStringLength(0, x + 2) <= w) {
				t.textContent = txt.substring(0, x) + "..";
				return;
			}
		}
		t.textContent = "";
	}

	// zoom
	function zoom_reset(e) {
		if (e.attributes != undefined) {
			orig_load(e, "x");
			orig_load(e, "width");
		}
		if (e.childNodes == undefined) return;
		for (var i = 0, c = e.childNodes; i < c.length; i++) {
			zoom_reset(c[i]);
		}
	}
	function zoom_child(e, x, ratio) {
		if (e.attributes != undefined) {
			if (e.attributes.x != undefined) {
				orig_save(e, "x");
				e.attributes.x.value = (parseFloat(e.attributes.x.value) - x - 10) * ratio + 10;
				if (e.tagName == "text")
					e.attributes.x.value = find_child(e.parentNode, "rect[x]").attributes.x.value + 3;
			}
			if (e.attributes.width != undefined) {
				orig_save(e, "width");
				e.attributes.width.value = parseFloat(e.attributes.width.value) * ratio;
			}
		}

		if (e.childNodes == undefined) return;
		for (var i = 0, c = e.childNodes; i < c.length; i++) {
			zoom_child(c[i], x - 10, ratio);
		}
	}
	function zoom_parent(e) {
		if (e.attributes) {
			if (e.attributes.x != undefined) {
				orig_save(e, "x");
				e.attributes.x.value = 10;
			}
			if (e.attributes.width != undefined) {
				orig_save(e, "width");
				e.attributes.width.value = parseInt(svg.width.baseVal.value) - (10 * 2);
			}
		}
		if (e.childNodes == undefined) return;
		for (var i = 0, c = e.childNodes; i < c.length; i++) {
			zoom_parent(c[i]);
		}
	}
	function zoom(node) {
		var attr = find_child(node, "rect").attributes;
		var width = parseFloat(attr.width.value);
		var xmin = parseFloat(attr.x.value);
		var xmax = parseFloat(xmin + width);
		var ymin = parseFloat(attr.y.value);
		var ratio = (svg.width.baseVal.value - 2 * 10) / width;

		// XXX: Workaround for JavaScript float issues (fix me)
		var fudge = 0.0001;

		unzoombtn.classList.remove("hide");

		var el = document.getElementById("frames").children;
		for (var i = 0; i < el.length; i++) {
			var e = el[i];
			var a = find_child(e, "rect").attributes;
			var ex = parseFloat(a.x.value);
			var ew = parseFloat(a.width.value);
			var upstack;
			// Is it an ancestor
			if (0 == 0) {
				upstack = parseFloat(a.y.value) > ymin;
			} else {
				upstack = parseFloat(a.y.value) < ymin;
			}
			if (upstack) {
				// Direct ancestor
				if (ex <= xmin && (ex+ew+fudge) >= xmax) {
					e.classList.add("parent");
					zoom_parent(e);
					update_text(e);
				}
				// not in current path
				else
					e.classList.add("hide");
			}
			// Children maybe
			else {
				// no common path
				if (ex < xmin || ex + fudge >= xmax) {
					e.classList.add("hide");
				}
				else {
					zoom_child(e, xmin, ratio);
					update_text(e);
				}
			}
		}
		search();
	}
	function unzoom(dont_update_text) {
		unzoombtn.classList.add("hide");
		var el = document.getElementById("frames").children;
		for(var i = 0; i < el.length; i++) {
			el[i].classList.remove("parent");
			el[i].classList.remove("hide");
			zoom_reset(el[i]);
			if(!dont_update_text) update_text(el[i]);
		}
		search();
	}
	function clearzoom() {
		unzoom();

		// remove zoom state
		var params = get_params();
		if (params.x) delete params.x;
		if (params.y) delete params.y;
		history.replaceState(null, null, parse_params(params));
	}

	// search
	function toggle_ignorecase() {
		ignorecase = !ignorecase;
		if (ignorecase) {
			ignorecaseBtn.classList.add("show");
		} else {
			ignorecaseBtn.classList.remove("show");
		}
		reset_search();
		search();
	}
	function reset_search() {
		var el = document.querySelectorAll("#frames rect");
		for (var i = 0; i < el.length; i++) {
			orig_load(el[i], "fill")
		}
		var params = get_params();
		delete params.s;
		history.replaceState(null, null, parse_params(params));
	}
	function search_prompt() {
		if (!searching) {
			var term = prompt("Enter a search term (regexp " +
			    "allowed, eg: ^ext4_)"
			    + (ignorecase ? ", ignoring case" : "")
			    + "\nPress Ctrl-i to toggle case sensitivity", "");
			if (term != null) search(term);
		} else {
			reset_search();
			searching = 0;
			currentSearchTerm = null;
			searchbtn.classList.remove("show");
			searchbtn.firstChild.nodeValue = "Search"
			matchedtxt.classList.add("hide");
			matchedtxt.firstChild.nodeValue = ""
		}
	}
	function search(term) {
		if (term) currentSearchTerm = term;
		if (currentSearchTerm === null) return;

		var re = new RegExp(currentSearchTerm, ignorecase ? 'i' : '');
		var el = document.getElementById("frames").children;
		var matches = new Object();
		var maxwidth = 0;
		for (var i = 0; i < el.length; i++) {
			var e = el[i];
			var func = g_to_func(e);
			var rect = find_child(e, "rect");
			if (func == null || rect == null)
				continue;

			// Save max width. Only works as we have a root frame
			var w = parseFloat(rect.attributes.width.value);
			if (w > maxwidth)
				maxwidth = w;

			if (func.match(re)) {
				// highlight
				var x = parseFloat(rect.attributes.x.value);
				orig_save(rect, "fill");
				rect.attributes.fill.value = "rgb(230,0,230)";

				// remember matches
				if (matches[x] == undefined) {
					matches[x] = w;
				} else {
					if (w > matches[x]) {
						// overwrite with parent
						matches[x] = w;
					}
				}
				searching = 1;
			}
		}
		if (!searching)
			return;
		var params = get_params();
		params.s = currentSearchTerm;
		history.replaceState(null, null, parse_params(params));

		searchbtn.classList.add("show");
		searchbtn.firstChild.nodeValue = "Reset Search";

		// calculate percent matched, excluding vertical overlap
		var count = 0;
		var lastx = -1;
		var lastw = 0;
		var keys = Array();
		for (k in matches) {
			if (matches.hasOwnProperty(k))
				keys.push(k);
		}
		// sort the matched frames by their x location
		// ascending, then width descending
		keys.sort(function(a, b){
			return a - b;
		});
		// Step through frames saving only the biggest bottom-up frames
		// thanks to the sort order. This relies on the tree property
		// where children are always smaller than their parents.
		var fudge = 0.0001;	// JavaScript floating point
		for (var k in keys) {
			var x = parseFloat(keys[k]);
			var w = matches[keys[k]];
			if (x >= lastx + lastw - fudge) {
				count += w;
				lastx = x;
				lastw = w;
			}
		}
		// display matched percent
		matchedtxt.classList.remove("hide");
		var pct = 100 * count / maxwidth;
		if (pct != 100) pct = pct.toFixed(1)
		matchedtxt.firstChild.nodeValue = "Matched: " + pct + "%";
	}
]]>
</script>
<rect x="0.0" y="0" width="1200.0" height="566.0" fill="url(#background)"  />
<text id="title" x="600.00" y="24" >Flame Graph</text>
<text id="details" x="10.00" y="549" > </text>
<text id="unzoom" x="10.00" y="24" class="hide">Reset Zoom</text>
<text id="search" x="1090.00" y="24" >Search</text>
<text id="ignorecase" x="1174.00" y="24" >ic</text>
<text id="matched" x="1090.00" y="549" > </text>
<g id="frames">
<g >
<title>_dl_map_object_from_fd (1,192,515 samples, 0.01%)</title><rect x="736.3" y="357" width="0.1" height="15.0" fill="rgb(249,205,49)" rx="2" ry="2" />
<text  x="739.31" y="367.5" ></text>
</g>
<g >
<title>[[kernel.kallsyms]] (1,136,680 samples, 0.01%)</title><rect x="10.0" y="405" width="0.1" height="15.0" fill="rgb(213,39,9)" rx="2" ry="2" />
<text  x="13.00" y="415.5" ></text>
</g>
<g >
<title>[[kernel.kallsyms]] (2,105,648,187 samples, 19.88%)</title><rect x="400.8" y="309" width="234.5" height="15.0" fill="rgb(213,39,9)" rx="2" ry="2" />
<text  x="403.76" y="319.5" >[[kernel.kallsyms]]</text>
</g>
<g >
<title>[[kernel.kallsyms]] (922,613 samples, 0.01%)</title><rect x="736.2" y="357" width="0.1" height="15.0" fill="rgb(213,39,9)" rx="2" ry="2" />
<text  x="739.17" y="367.5" ></text>
</g>
<g >
<title>[[kernel.kallsyms]] (104,286,132 samples, 0.98%)</title><rect x="713.1" y="389" width="11.6" height="15.0" fill="rgb(213,39,9)" rx="2" ry="2" />
<text  x="716.11" y="399.5" ></text>
</g>
<g >
<title>[[kernel.kallsyms]] (102,005,538 samples, 0.96%)</title><rect x="713.4" y="357" width="11.3" height="15.0" fill="rgb(213,39,9)" rx="2" ry="2" />
<text  x="716.36" y="367.5" ></text>
</g>
<g >
<title>[[kernel.kallsyms]] (584,238,996 samples, 5.52%)</title><rect x="644.5" y="341" width="65.1" height="15.0" fill="rgb(213,39,9)" rx="2" ry="2" />
<text  x="647.49" y="351.5" >[[kerne..</text>
</g>
<g >
<title>_dl_start_user (3,137,306 samples, 0.03%)</title><rect x="736.3" y="485" width="0.3" height="15.0" fill="rgb(236,145,34)" rx="2" ry="2" />
<text  x="739.28" y="495.5" ></text>
</g>
<g >
<title>[[kernel.kallsyms]] (167,500,187 samples, 1.58%)</title><rect x="690.9" y="69" width="18.7" height="15.0" fill="rgb(213,39,9)" rx="2" ry="2" />
<text  x="693.92" y="79.5" ></text>
</g>
<g >
<title>_int_free_merge_chunk (33,550,496 samples, 0.32%)</title><rect x="640.8" y="405" width="3.7" height="15.0" fill="rgb(240,163,39)" rx="2" ry="2" />
<text  x="643.75" y="415.5" ></text>
</g>
<g >
<title>[[kernel.kallsyms]] (11,404,961 samples, 0.11%)</title><rect x="708.3" y="37" width="1.3" height="15.0" fill="rgb(213,39,9)" rx="2" ry="2" />
<text  x="711.31" y="47.5" ></text>
</g>
<g >
<title>[[kernel.kallsyms]] (73,363,223 samples, 0.69%)</title><rect x="627.2" y="213" width="8.1" height="15.0" fill="rgb(213,39,9)" rx="2" ry="2" />
<text  x="630.17" y="223.5" ></text>
</g>
<g >
<title>[[kernel.kallsyms]] (584,238,996 samples, 5.52%)</title><rect x="644.5" y="325" width="65.1" height="15.0" fill="rgb(213,39,9)" rx="2" ry="2" />
<text  x="647.49" y="335.5" >[[kerne..</text>
</g>
<g >
<title>_dl_sysdep_start (3,137,306 samples, 0.03%)</title><rect x="736.3" y="453" width="0.3" height="15.0" fill="rgb(234,137,32)" rx="2" ry="2" />
<text  x="739.28" y="463.5" ></text>
</g>
<g >
<title>[[kernel.kallsyms]] (83,892,686 samples, 0.79%)</title><rect x="715.4" y="293" width="9.3" height="15.0" fill="rgb(213,39,9)" rx="2" ry="2" />
<text  x="718.38" y="303.5" ></text>
</g>
<g >
<title>[[kernel.kallsyms]] (1,081,732 samples, 0.01%)</title><rect x="635.2" y="165" width="0.1" height="15.0" fill="rgb(213,39,9)" rx="2" ry="2" />
<text  x="638.22" y="175.5" ></text>
</g>
<g >
<title>[[kernel.kallsyms]] (79,347,845 samples, 0.75%)</title><rect x="715.9" y="277" width="8.8" height="15.0" fill="rgb(213,39,9)" rx="2" ry="2" />
<text  x="718.89" y="287.5" ></text>
</g>
<g >
<title>[unknown] (618,914,288 samples, 5.84%)</title><rect x="640.6" y="453" width="69.0" height="15.0" fill="rgb(210,24,5)" rx="2" ry="2" />
<text  x="643.62" y="463.5" >[unknown]</text>
</g>
<g >
<title>[[kernel.kallsyms]] (1,136,680 samples, 0.01%)</title><rect x="10.0" y="437" width="0.1" height="15.0" fill="rgb(213,39,9)" rx="2" ry="2" />
<text  x="13.00" y="447.5" ></text>
</g>
<g >
<title>operator new (234,204,685 samples, 2.21%)</title><rect x="710.0" y="453" width="26.1" height="15.0" fill="rgb(216,51,12)" rx="2" ry="2" />
<text  x="712.96" y="463.5" >o..</text>
</g>
<g >
<title>[[kernel.kallsyms]] (71,203,639 samples, 0.67%)</title><rect x="728.1" y="325" width="8.0" height="15.0" fill="rgb(213,39,9)" rx="2" ry="2" />
<text  x="731.12" y="335.5" ></text>
</g>
<g >
<title>[[kernel.kallsyms]] (21,556,183 samples, 0.20%)</title><rect x="722.3" y="229" width="2.4" height="15.0" fill="rgb(213,39,9)" rx="2" ry="2" />
<text  x="725.33" y="239.5" ></text>
</g>
<g >
<title>[[kernel.kallsyms]] (956,483 samples, 0.01%)</title><rect x="739.1" y="341" width="0.1" height="15.0" fill="rgb(213,39,9)" rx="2" ry="2" />
<text  x="742.08" y="351.5" ></text>
</g>
<g >
<title>[unknown] (5,658,116,825 samples, 53.42%)</title><rect x="10.1" y="469" width="630.4" height="15.0" fill="rgb(210,24,5)" rx="2" ry="2" />
<text  x="13.14" y="479.5" >[unknown]</text>
</g>
<g >
<title>__default_morecore@GLIBC_2.2.5 (101,624,099 samples, 0.96%)</title><rect x="724.7" y="405" width="11.4" height="15.0" fill="rgb(240,161,38)" rx="2" ry="2" />
<text  x="727.73" y="415.5" ></text>
</g>
<g >
<title>[[kernel.kallsyms]] (584,238,996 samples, 5.52%)</title><rect x="644.5" y="309" width="65.1" height="15.0" fill="rgb(213,39,9)" rx="2" ry="2" />
<text  x="647.49" y="319.5" >[[kerne..</text>
</g>
<g >
<title>__memmove_evex_unaligned_erms (5,610,719,011 samples, 52.97%)</title><rect x="10.3" y="453" width="625.0" height="15.0" fill="rgb(226,100,24)" rx="2" ry="2" />
<text  x="13.27" y="463.5" >__memmove_evex_unaligned_erms</text>
</g>
<g >
<title>[[kernel.kallsyms]] (477,613,765 samples, 4.51%)</title><rect x="656.4" y="149" width="53.2" height="15.0" fill="rgb(213,39,9)" rx="2" ry="2" />
<text  x="659.37" y="159.5" >[[ker..</text>
</g>
<g >
<title>[[kernel.kallsyms]] (1,136,680 samples, 0.01%)</title><rect x="10.0" y="277" width="0.1" height="15.0" fill="rgb(213,39,9)" rx="2" ry="2" />
<text  x="13.00" y="287.5" ></text>
</g>
<g >
<title>[[kernel.kallsyms]] (76,812,714 samples, 0.73%)</title><rect x="727.5" y="357" width="8.6" height="15.0" fill="rgb(213,39,9)" rx="2" ry="2" />
<text  x="730.49" y="367.5" ></text>
</g>
<g >
<title>[[kernel.kallsyms]] (350,536,491 samples, 3.31%)</title><rect x="670.5" y="101" width="39.1" height="15.0" fill="rgb(213,39,9)" rx="2" ry="2" />
<text  x="673.52" y="111.5" >[[k..</text>
</g>
<g >
<title>[[kernel.kallsyms]] (348,620,694 samples, 3.29%)</title><rect x="596.5" y="245" width="38.8" height="15.0" fill="rgb(213,39,9)" rx="2" ry="2" />
<text  x="599.51" y="255.5" >[[k..</text>
</g>
<g >
<title>[[kernel.kallsyms]] (242,528,296 samples, 2.29%)</title><rect x="682.6" y="85" width="27.0" height="15.0" fill="rgb(213,39,9)" rx="2" ry="2" />
<text  x="685.56" y="95.5" >[..</text>
</g>
<g >
<title>_dl_map_object (1,192,515 samples, 0.01%)</title><rect x="736.3" y="373" width="0.1" height="15.0" fill="rgb(248,199,47)" rx="2" ry="2" />
<text  x="739.31" y="383.5" ></text>
</g>
<g >
<title>[[kernel.kallsyms]] (95,178,125 samples, 0.90%)</title><rect x="714.1" y="341" width="10.6" height="15.0" fill="rgb(213,39,9)" rx="2" ry="2" />
<text  x="717.12" y="351.5" ></text>
</g>
<g >
<title>__memmove_evex_unaligned_erms (1,135,308 samples, 0.01%)</title><rect x="640.5" y="469" width="0.1" height="15.0" fill="rgb(226,100,24)" rx="2" ry="2" />
<text  x="643.50" y="479.5" ></text>
</g>
<g >
<title>[[kernel.kallsyms]] (1,081,732 samples, 0.01%)</title><rect x="635.2" y="133" width="0.1" height="15.0" fill="rgb(213,39,9)" rx="2" ry="2" />
<text  x="638.22" y="143.5" ></text>
</g>
<g >
<title>dl_main (2,888,389 samples, 0.03%)</title><rect x="736.3" y="437" width="0.3" height="15.0" fill="rgb(236,145,34)" rx="2" ry="2" />
<text  x="739.31" y="447.5" ></text>
</g>
<g >
<title>[[kernel.kallsyms]] (27,252,497 samples, 0.26%)</title><rect x="721.7" y="245" width="3.0" height="15.0" fill="rgb(213,39,9)" rx="2" ry="2" />
<text  x="724.69" y="255.5" ></text>
</g>
<g >
<title>__brk (1,140,886 samples, 0.01%)</title><rect x="10.1" y="453" width="0.2" height="15.0" fill="rgb(225,94,22)" rx="2" ry="2" />
<text  x="13.14" y="463.5" ></text>
</g>
<g >
<title>[[kernel.kallsyms]] (922,613 samples, 0.01%)</title><rect x="736.2" y="325" width="0.1" height="15.0" fill="rgb(213,39,9)" rx="2" ry="2" />
<text  x="739.17" y="335.5" ></text>
</g>
<g >
<title>[[kernel.kallsyms]] (1,136,680 samples, 0.01%)</title><rect x="10.0" y="293" width="0.1" height="15.0" fill="rgb(213,39,9)" rx="2" ry="2" />
<text  x="13.00" y="303.5" ></text>
</g>
<g >
<title>[unknown] (6,515,918,924 samples, 61.52%)</title><rect x="10.1" y="485" width="726.0" height="15.0" fill="rgb(210,24,5)" rx="2" ry="2" />
<text  x="13.13" y="495.5" >[unknown]</text>
</g>
<g >
<title>[[kernel.kallsyms]] (2,865,136,713 samples, 27.05%)</title><rect x="316.1" y="389" width="319.2" height="15.0" fill="rgb(213,39,9)" rx="2" ry="2" />
<text  x="319.15" y="399.5" >[[kernel.kallsyms]]</text>
</g>
<g >
<title>__brk (101,624,099 samples, 0.96%)</title><rect x="724.7" y="389" width="11.4" height="15.0" fill="rgb(225,94,22)" rx="2" ry="2" />
<text  x="727.73" y="399.5" ></text>
</g>
<g >
<title>[[kernel.kallsyms]] (90,627,236 samples, 0.86%)</title><rect x="714.6" y="325" width="10.1" height="15.0" fill="rgb(213,39,9)" rx="2" ry="2" />
<text  x="717.63" y="335.5" ></text>
</g>
<g >
<title>[[kernel.kallsyms]] (956,483 samples, 0.01%)</title><rect x="739.1" y="421" width="0.1" height="15.0" fill="rgb(213,39,9)" rx="2" ry="2" />
<text  x="742.08" y="431.5" ></text>
</g>
<g >
<title>[[kernel.kallsyms]] (1,136,680 samples, 0.01%)</title><rect x="10.0" y="453" width="0.1" height="15.0" fill="rgb(213,39,9)" rx="2" ry="2" />
<text  x="13.00" y="463.5" ></text>
</g>
<g >
<title>[[kernel.kallsyms]] (2,039,168 samples, 0.02%)</title><rect x="736.1" y="469" width="0.2" height="15.0" fill="rgb(213,39,9)" rx="2" ry="2" />
<text  x="739.05" y="479.5" ></text>
</g>
<g >
<title>[[kernel.kallsyms]] (583,103,326 samples, 5.51%)</title><rect x="644.6" y="229" width="65.0" height="15.0" fill="rgb(213,39,9)" rx="2" ry="2" />
<text  x="647.61" y="239.5" >[[kerne..</text>
</g>
<g >
<title>[[kernel.kallsyms]] (581,968,623 samples, 5.49%)</title><rect x="644.7" y="181" width="64.9" height="15.0" fill="rgb(213,39,9)" rx="2" ry="2" />
<text  x="647.74" y="191.5" >[[kerne..</text>
</g>
<g >
<title>[[kernel.kallsyms]] (583,103,326 samples, 5.51%)</title><rect x="644.6" y="245" width="65.0" height="15.0" fill="rgb(213,39,9)" rx="2" ry="2" />
<text  x="647.61" y="255.5" >[[kerne..</text>
</g>
<g >
<title>process_data_efficiently (618,914,288 samples, 5.84%)</title><rect x="640.6" y="437" width="69.0" height="15.0" fill="rgb(224,91,21)" rx="2" ry="2" />
<text  x="643.62" y="447.5" >process..</text>
</g>
<g >
<title>[[kernel.kallsyms]] (583,103,326 samples, 5.51%)</title><rect x="644.6" y="277" width="65.0" height="15.0" fill="rgb(213,39,9)" rx="2" ry="2" />
<text  x="647.61" y="287.5" >[[kerne..</text>
</g>
<g >
<title>[[kernel.kallsyms]] (956,483 samples, 0.01%)</title><rect x="739.1" y="405" width="0.1" height="15.0" fill="rgb(213,39,9)" rx="2" ry="2" />
<text  x="742.08" y="415.5" ></text>
</g>
<g >
<title>systrim.constprop.0 (584,238,996 samples, 5.52%)</title><rect x="644.5" y="405" width="65.1" height="15.0" fill="rgb(213,39,9)" rx="2" ry="2" />
<text  x="647.49" y="415.5" >systrim..</text>
</g>
<g >
<title>[[kernel.kallsyms]] (5,629,251 samples, 0.05%)</title><rect x="735.4" y="213" width="0.7" height="15.0" fill="rgb(213,39,9)" rx="2" ry="2" />
<text  x="738.42" y="223.5" ></text>
</g>
<g >
<title>[[kernel.kallsyms]] (63,311,489 samples, 0.60%)</title><rect x="729.0" y="277" width="7.1" height="15.0" fill="rgb(213,39,9)" rx="2" ry="2" />
<text  x="732.00" y="287.5" ></text>
</g>
<g >
<title>[[kernel.kallsyms]] (956,483 samples, 0.01%)</title><rect x="739.1" y="373" width="0.1" height="15.0" fill="rgb(213,39,9)" rx="2" ry="2" />
<text  x="742.08" y="383.5" ></text>
</g>
<g >
<title>[[kernel.kallsyms]] (1,136,680 samples, 0.01%)</title><rect x="10.0" y="421" width="0.1" height="15.0" fill="rgb(213,39,9)" rx="2" ry="2" />
<text  x="13.00" y="431.5" ></text>
</g>
<g >
<title>_int_malloc (234,204,685 samples, 2.21%)</title><rect x="710.0" y="421" width="26.1" height="15.0" fill="rgb(215,47,11)" rx="2" ry="2" />
<text  x="712.96" y="431.5" >_..</text>
</g>
<g >
<title>[[kernel.kallsyms]] (66,734,744 samples, 0.63%)</title><rect x="728.6" y="293" width="7.5" height="15.0" fill="rgb(213,39,9)" rx="2" ry="2" />
<text  x="731.62" y="303.5" ></text>
</g>
<g >
<title>[[kernel.kallsyms]] (922,613 samples, 0.01%)</title><rect x="736.2" y="421" width="0.1" height="15.0" fill="rgb(213,39,9)" rx="2" ry="2" />
<text  x="739.17" y="431.5" ></text>
</g>
<g >
<title>[[kernel.kallsyms]] (11,337,900 samples, 0.11%)</title><rect x="723.5" y="197" width="1.2" height="15.0" fill="rgb(213,39,9)" rx="2" ry="2" />
<text  x="726.47" y="207.5" ></text>
</g>
<g >
<title>[[kernel.kallsyms]] (1,135,308 samples, 0.01%)</title><rect x="640.5" y="453" width="0.1" height="15.0" fill="rgb(213,39,9)" rx="2" ry="2" />
<text  x="643.50" y="463.5" ></text>
</g>
<g >
<title>[[kernel.kallsyms]] (1,136,680 samples, 0.01%)</title><rect x="10.0" y="357" width="0.1" height="15.0" fill="rgb(213,39,9)" rx="2" ry="2" />
<text  x="13.00" y="367.5" ></text>
</g>
<g >
<title>[[kernel.kallsyms]] (922,613 samples, 0.01%)</title><rect x="736.2" y="453" width="0.1" height="15.0" fill="rgb(213,39,9)" rx="2" ry="2" />
<text  x="739.17" y="463.5" ></text>
</g>
<g >
<title>[[kernel.kallsyms]] (1,136,680 samples, 0.01%)</title><rect x="10.0" y="469" width="0.1" height="15.0" fill="rgb(213,39,9)" rx="2" ry="2" />
<text  x="13.00" y="479.5" ></text>
</g>
<g >
<title>[[kernel.kallsyms]] (922,613 samples, 0.01%)</title><rect x="736.2" y="437" width="0.1" height="15.0" fill="rgb(213,39,9)" rx="2" ry="2" />
<text  x="739.17" y="447.5" ></text>
</g>
<g >
<title>[[kernel.kallsyms]] (1,081,732 samples, 0.01%)</title><rect x="635.2" y="117" width="0.1" height="15.0" fill="rgb(213,39,9)" rx="2" ry="2" />
<text  x="638.22" y="127.5" ></text>
</g>
<g >
<title>[[kernel.kallsyms]] (1,136,680 samples, 0.01%)</title><rect x="10.0" y="485" width="0.1" height="15.0" fill="rgb(213,39,9)" rx="2" ry="2" />
<text  x="13.00" y="495.5" ></text>
</g>
<g >
<title>[[kernel.kallsyms]] (1,136,680 samples, 0.01%)</title><rect x="10.0" y="389" width="0.1" height="15.0" fill="rgb(213,39,9)" rx="2" ry="2" />
<text  x="13.00" y="399.5" ></text>
</g>
<g >
<title>[[kernel.kallsyms]] (44,073,208 samples, 0.42%)</title><rect x="731.1" y="261" width="5.0" height="15.0" fill="rgb(213,39,9)" rx="2" ry="2" />
<text  x="734.14" y="271.5" ></text>
</g>
<g >
<title>[[kernel.kallsyms]] (71,203,639 samples, 0.67%)</title><rect x="728.1" y="309" width="8.0" height="15.0" fill="rgb(213,39,9)" rx="2" ry="2" />
<text  x="731.12" y="319.5" ></text>
</g>
<g >
<title>[[kernel.kallsyms]] (583,103,326 samples, 5.51%)</title><rect x="644.6" y="213" width="65.0" height="15.0" fill="rgb(213,39,9)" rx="2" ry="2" />
<text  x="647.61" y="223.5" >[[kerne..</text>
</g>
<g >
<title>[[kernel.kallsyms]] (2,522,691,477 samples, 23.82%)</title><rect x="354.3" y="357" width="281.0" height="15.0" fill="rgb(213,39,9)" rx="2" ry="2" />
<text  x="357.30" y="367.5" >[[kernel.kallsyms]]</text>
</g>
<g >
<title>[[kernel.kallsyms]] (5,207,873,131 samples, 49.17%)</title><rect x="55.1" y="437" width="580.2" height="15.0" fill="rgb(213,39,9)" rx="2" ry="2" />
<text  x="58.15" y="447.5" >[[kernel.kallsyms]]</text>
</g>
<g >
<title>efficient_app (10,591,726,528 samples, 100.00%)</title><rect x="10.0" y="501" width="1180.0" height="15.0" fill="rgb(247,195,46)" rx="2" ry="2" />
<text  x="13.00" y="511.5" >efficient_app</text>
</g>
<g >
<title>[[kernel.kallsyms]] (1,175,394,980 samples, 11.10%)</title><rect x="504.4" y="293" width="130.9" height="15.0" fill="rgb(213,39,9)" rx="2" ry="2" />
<text  x="507.40" y="303.5" >[[kernel.kallsym..</text>
</g>
<g >
<title>malloc (234,204,685 samples, 2.21%)</title><rect x="710.0" y="437" width="26.1" height="15.0" fill="rgb(230,119,28)" rx="2" ry="2" />
<text  x="712.96" y="447.5" >m..</text>
</g>
<g >
<title>[[kernel.kallsyms]] (584,238,996 samples, 5.52%)</title><rect x="644.5" y="293" width="65.1" height="15.0" fill="rgb(213,39,9)" rx="2" ry="2" />
<text  x="647.49" y="303.5" >[[kerne..</text>
</g>
<g >
<title>[[kernel.kallsyms]] (1,140,601 samples, 0.01%)</title><rect x="735.9" y="197" width="0.2" height="15.0" fill="rgb(213,39,9)" rx="2" ry="2" />
<text  x="738.92" y="207.5" ></text>
</g>
<g >
<title>[[kernel.kallsyms]] (129,870,132 samples, 1.23%)</title><rect x="620.9" y="229" width="14.4" height="15.0" fill="rgb(213,39,9)" rx="2" ry="2" />
<text  x="623.88" y="239.5" ></text>
</g>
<g >
<title>__brk (584,238,996 samples, 5.52%)</title><rect x="644.5" y="373" width="65.1" height="15.0" fill="rgb(225,94,22)" rx="2" ry="2" />
<text  x="647.49" y="383.5" >__brk</text>
</g>
<g >
<title>[[kernel.kallsyms]] (488,630,247 samples, 4.61%)</title><rect x="580.9" y="261" width="54.4" height="15.0" fill="rgb(213,39,9)" rx="2" ry="2" />
<text  x="583.91" y="271.5" >[[ker..</text>
</g>
<g >
<title>[[kernel.kallsyms]] (922,613 samples, 0.01%)</title><rect x="736.2" y="389" width="0.1" height="15.0" fill="rgb(213,39,9)" rx="2" ry="2" />
<text  x="739.17" y="399.5" ></text>
</g>
<g >
<title>find_primes_efficiently (22,870,233 samples, 0.22%)</title><rect x="736.6" y="485" width="2.6" height="15.0" fill="rgb(246,191,45)" rx="2" ry="2" />
<text  x="739.64" y="495.5" ></text>
</g>
<g >
<title>[[kernel.kallsyms]] (583,103,326 samples, 5.51%)</title><rect x="644.6" y="197" width="65.0" height="15.0" fill="rgb(213,39,9)" rx="2" ry="2" />
<text  x="647.61" y="207.5" >[[kerne..</text>
</g>
<g >
<title>[[kernel.kallsyms]] (13,613,853 samples, 0.13%)</title><rect x="723.2" y="213" width="1.5" height="15.0" fill="rgb(213,39,9)" rx="2" ry="2" />
<text  x="726.21" y="223.5" ></text>
</g>
<g >
<title>_int_malloc (45,120,664 samples, 0.43%)</title><rect x="635.5" y="405" width="5.0" height="15.0" fill="rgb(215,47,11)" rx="2" ry="2" />
<text  x="638.47" y="415.5" ></text>
</g>
<g >
<title>_dl_catch_exception (1,192,515 samples, 0.01%)</title><rect x="736.3" y="405" width="0.1" height="15.0" fill="rgb(253,223,53)" rx="2" ry="2" />
<text  x="739.31" y="415.5" ></text>
</g>
<g >
<title>[[kernel.kallsyms]] (2,938,747,646 samples, 27.75%)</title><rect x="307.9" y="421" width="327.4" height="15.0" fill="rgb(213,39,9)" rx="2" ry="2" />
<text  x="310.95" y="431.5" >[[kernel.kallsyms]]</text>
</g>
<g >
<title>__default_morecore@GLIBC_2.2.5 (584,238,996 samples, 5.52%)</title><rect x="644.5" y="389" width="65.1" height="15.0" fill="rgb(240,161,38)" rx="2" ry="2" />
<text  x="647.49" y="399.5" >__defau..</text>
</g>
<g >
<title>[[kernel.kallsyms]] (956,483 samples, 0.01%)</title><rect x="739.1" y="469" width="0.1" height="15.0" fill="rgb(213,39,9)" rx="2" ry="2" />
<text  x="742.08" y="479.5" ></text>
</g>
<g >
<title>cfree@GLIBC_2.2.5 (618,914,288 samples, 5.84%)</title><rect x="640.6" y="421" width="69.0" height="15.0" fill="rgb(233,131,31)" rx="2" ry="2" />
<text  x="643.62" y="431.5" >cfree@G..</text>
</g>
<g >
<title>[[kernel.kallsyms]] (922,613 samples, 0.01%)</title><rect x="736.2" y="309" width="0.1" height="15.0" fill="rgb(213,39,9)" rx="2" ry="2" />
<text  x="739.17" y="319.5" ></text>
</g>
<g >
<title>[[kernel.kallsyms]] (459,379,008 samples, 4.34%)</title><rect x="658.4" y="133" width="51.2" height="15.0" fill="rgb(213,39,9)" rx="2" ry="2" />
<text  x="661.40" y="143.5" >[[ker..</text>
</g>
<g >
<title>[[kernel.kallsyms]] (584,238,996 samples, 5.52%)</title><rect x="644.5" y="357" width="65.1" height="15.0" fill="rgb(213,39,9)" rx="2" ry="2" />
<text  x="647.49" y="367.5" >[[kerne..</text>
</g>
<g >
<title>[[kernel.kallsyms]] (1,081,732 samples, 0.01%)</title><rect x="635.2" y="197" width="0.1" height="15.0" fill="rgb(213,39,9)" rx="2" ry="2" />
<text  x="638.22" y="207.5" ></text>
</g>
<g >
<title>[[kernel.kallsyms]] (2,334,218,174 samples, 22.04%)</title><rect x="375.3" y="325" width="260.0" height="15.0" fill="rgb(213,39,9)" rx="2" ry="2" />
<text  x="378.30" y="335.5" >[[kernel.kallsyms]]</text>
</g>
<g >
<title>[[kernel.kallsyms]] (20,284,447 samples, 0.19%)</title><rect x="733.8" y="229" width="2.3" height="15.0" fill="rgb(213,39,9)" rx="2" ry="2" />
<text  x="736.79" y="239.5" ></text>
</g>
<g >
<title>[[kernel.kallsyms]] (922,613 samples, 0.01%)</title><rect x="736.2" y="373" width="0.1" height="15.0" fill="rgb(213,39,9)" rx="2" ry="2" />
<text  x="739.17" y="383.5" ></text>
</g>
<g >
<title>malloc (1,140,609 samples, 0.01%)</title><rect x="709.8" y="453" width="0.2" height="15.0" fill="rgb(230,119,28)" rx="2" ry="2" />
<text  x="712.83" y="463.5" ></text>
</g>
<g >
<title>[[kernel.kallsyms]] (510,576,974 samples, 4.82%)</title><rect x="652.7" y="165" width="56.9" height="15.0" fill="rgb(213,39,9)" rx="2" ry="2" />
<text  x="655.69" y="175.5" >[[kern..</text>
</g>
<g >
<title>[[kernel.kallsyms]] (956,483 samples, 0.01%)</title><rect x="739.1" y="325" width="0.1" height="15.0" fill="rgb(213,39,9)" rx="2" ry="2" />
<text  x="742.08" y="335.5" ></text>
</g>
<g >
<title>[[kernel.kallsyms]] (2,924,066,423 samples, 27.61%)</title><rect x="309.6" y="405" width="325.7" height="15.0" fill="rgb(213,39,9)" rx="2" ry="2" />
<text  x="312.58" y="415.5" >[[kernel.kallsyms]]</text>
</g>
<g >
<title>[[kernel.kallsyms]] (1,140,886 samples, 0.01%)</title><rect x="10.1" y="437" width="0.2" height="15.0" fill="rgb(213,39,9)" rx="2" ry="2" />
<text  x="13.14" y="447.5" ></text>
</g>
<g >
<title>std::vector&lt;int, std::allocator&lt;int&gt; &gt;* std::__do_uninit_fill_n&lt;std::vector&lt;int, std::allocator&lt;int&gt; &gt;*, unsigned long, std::vector&lt;int, std::allocator&lt;int&gt; &gt; &gt; (46,256,928 samples, 0.44%)</title><rect x="635.3" y="453" width="5.2" height="15.0" fill="rgb(211,30,7)" rx="2" ry="2" />
<text  x="638.35" y="463.5" ></text>
</g>
<g >
<title>[[kernel.kallsyms]] (956,483 samples, 0.01%)</title><rect x="739.1" y="309" width="0.1" height="15.0" fill="rgb(213,39,9)" rx="2" ry="2" />
<text  x="742.08" y="319.5" ></text>
</g>
<g >
<title>_dl_map_object_deps (1,192,515 samples, 0.01%)</title><rect x="736.3" y="421" width="0.1" height="15.0" fill="rgb(219,68,16)" rx="2" ry="2" />
<text  x="739.31" y="431.5" ></text>
</g>
<g >
<title>[[kernel.kallsyms]] (419,786,679 samples, 3.96%)</title><rect x="662.8" y="117" width="46.8" height="15.0" fill="rgb(213,39,9)" rx="2" ry="2" />
<text  x="665.81" y="127.5" >[[ke..</text>
</g>
<g >
<title>[[kernel.kallsyms]] (98,204,338 samples, 0.93%)</title><rect x="725.1" y="373" width="11.0" height="15.0" fill="rgb(213,39,9)" rx="2" ry="2" />
<text  x="728.11" y="383.5" ></text>
</g>
<g >
<title>[[kernel.kallsyms]] (28,255,369 samples, 0.27%)</title><rect x="732.9" y="245" width="3.2" height="15.0" fill="rgb(213,39,9)" rx="2" ry="2" />
<text  x="735.90" y="255.5" ></text>
</g>
<g >
<title>[[kernel.kallsyms]] (922,613 samples, 0.01%)</title><rect x="736.2" y="341" width="0.1" height="15.0" fill="rgb(213,39,9)" rx="2" ry="2" />
<text  x="739.17" y="351.5" ></text>
</g>
<g >
<title>[[kernel.kallsyms]] (1,081,732 samples, 0.01%)</title><rect x="635.2" y="181" width="0.1" height="15.0" fill="rgb(213,39,9)" rx="2" ry="2" />
<text  x="638.22" y="191.5" ></text>
</g>
<g >
<title>[[kernel.kallsyms]] (72,344,721 samples, 0.68%)</title><rect x="728.0" y="341" width="8.1" height="15.0" fill="rgb(213,39,9)" rx="2" ry="2" />
<text  x="730.99" y="351.5" ></text>
</g>
<g >
<title>[[kernel.kallsyms]] (104,286,132 samples, 0.98%)</title><rect x="713.1" y="373" width="11.6" height="15.0" fill="rgb(213,39,9)" rx="2" ry="2" />
<text  x="716.11" y="383.5" ></text>
</g>
<g >
<title>std::vector&lt;int, std::allocator&lt;int&gt; &gt;* std::__do_uninit_fill_n&lt;std::vector&lt;int, std::allocator&lt;int&gt; &gt;*, unsigned long, std::vector&lt;int, std::allocator&lt;int&gt; &gt; &gt; (237,627,504 samples, 2.24%)</title><rect x="709.6" y="469" width="26.5" height="15.0" fill="rgb(211,30,7)" rx="2" ry="2" />
<text  x="712.58" y="479.5" >s..</text>
</g>
<g >
<title>_dl_relocate_object (1,695,874 samples, 0.02%)</title><rect x="736.4" y="421" width="0.2" height="15.0" fill="rgb(231,120,28)" rx="2" ry="2" />
<text  x="739.44" y="431.5" ></text>
</g>
<g >
<title>[[kernel.kallsyms]] (956,483 samples, 0.01%)</title><rect x="739.1" y="389" width="0.1" height="15.0" fill="rgb(213,39,9)" rx="2" ry="2" />
<text  x="742.08" y="399.5" ></text>
</g>
<g >
<title>[[kernel.kallsyms]] (45,120,664 samples, 0.43%)</title><rect x="635.5" y="389" width="5.0" height="15.0" fill="rgb(213,39,9)" rx="2" ry="2" />
<text  x="638.47" y="399.5" ></text>
</g>
<g >
<title>[[kernel.kallsyms]] (1,136,680 samples, 0.01%)</title><rect x="10.0" y="341" width="0.1" height="15.0" fill="rgb(213,39,9)" rx="2" ry="2" />
<text  x="13.00" y="351.5" ></text>
</g>
<g >
<title>[[kernel.kallsyms]] (956,483 samples, 0.01%)</title><rect x="739.1" y="453" width="0.1" height="15.0" fill="rgb(213,39,9)" rx="2" ry="2" />
<text  x="742.08" y="463.5" ></text>
</g>
<g >
<title>std::ctype&lt;char&gt;::~ctype (618,914,288 samples, 5.84%)</title><rect x="640.6" y="469" width="69.0" height="15.0" fill="rgb(207,10,2)" rx="2" ry="2" />
<text  x="643.62" y="479.5" >std::ct..</text>
</g>
<g >
<title>[[kernel.kallsyms]] (1,136,680 samples, 0.01%)</title><rect x="10.0" y="309" width="0.1" height="15.0" fill="rgb(213,39,9)" rx="2" ry="2" />
<text  x="13.00" y="319.5" ></text>
</g>
<g >
<title>[[kernel.kallsyms]] (778,782,392 samples, 7.35%)</title><rect x="548.6" y="277" width="86.7" height="15.0" fill="rgb(213,39,9)" rx="2" ry="2" />
<text  x="551.58" y="287.5" >[[kernel.k..</text>
</g>
<g >
<title>[[kernel.kallsyms]] (5,672,857 samples, 0.05%)</title><rect x="724.1" y="181" width="0.6" height="15.0" fill="rgb(213,39,9)" rx="2" ry="2" />
<text  x="727.10" y="191.5" ></text>
</g>
<g >
<title>[[kernel.kallsyms]] (1,081,732 samples, 0.01%)</title><rect x="635.2" y="149" width="0.1" height="15.0" fill="rgb(213,39,9)" rx="2" ry="2" />
<text  x="638.22" y="159.5" ></text>
</g>
<g >
<title>malloc (45,120,664 samples, 0.43%)</title><rect x="635.5" y="421" width="5.0" height="15.0" fill="rgb(230,119,28)" rx="2" ry="2" />
<text  x="638.47" y="431.5" ></text>
</g>
<g >
<title>__memset_evex_unaligned_erms (2,039,168 samples, 0.02%)</title><rect x="736.1" y="485" width="0.2" height="15.0" fill="rgb(218,60,14)" rx="2" ry="2" />
<text  x="739.05" y="495.5" ></text>
</g>
<g >
<title>_dl_start (3,137,306 samples, 0.03%)</title><rect x="736.3" y="469" width="0.3" height="15.0" fill="rgb(237,151,36)" rx="2" ry="2" />
<text  x="739.28" y="479.5" ></text>
</g>
<g >
<title>[[kernel.kallsyms]] (922,613 samples, 0.01%)</title><rect x="736.2" y="405" width="0.1" height="15.0" fill="rgb(213,39,9)" rx="2" ry="2" />
<text  x="739.17" y="415.5" ></text>
</g>
<g >
<title>[[kernel.kallsyms]] (583,103,326 samples, 5.51%)</title><rect x="644.6" y="261" width="65.0" height="15.0" fill="rgb(213,39,9)" rx="2" ry="2" />
<text  x="647.61" y="271.5" >[[kerne..</text>
</g>
<g >
<title>process_data_efficiently (4,046,499,218 samples, 38.20%)</title><rect x="739.2" y="485" width="450.8" height="15.0" fill="rgb(224,91,21)" rx="2" ry="2" />
<text  x="742.19" y="495.5" >process_data_efficiently</text>
</g>
<g >
<title>[[kernel.kallsyms]] (44,253,475 samples, 0.42%)</title><rect x="719.8" y="261" width="4.9" height="15.0" fill="rgb(213,39,9)" rx="2" ry="2" />
<text  x="722.80" y="271.5" ></text>
</g>
<g >
<title>[[kernel.kallsyms]] (1,136,680 samples, 0.01%)</title><rect x="10.0" y="373" width="0.1" height="15.0" fill="rgb(213,39,9)" rx="2" ry="2" />
<text  x="13.00" y="383.5" ></text>
</g>
<g >
<title>[[kernel.kallsyms]] (956,483 samples, 0.01%)</title><rect x="739.1" y="357" width="0.1" height="15.0" fill="rgb(213,39,9)" rx="2" ry="2" />
<text  x="742.08" y="367.5" ></text>
</g>
<g >
<title>[[kernel.kallsyms]] (956,483 samples, 0.01%)</title><rect x="739.1" y="437" width="0.1" height="15.0" fill="rgb(213,39,9)" rx="2" ry="2" />
<text  x="742.08" y="447.5" ></text>
</g>
<g >
<title>operator new (45,120,664 samples, 0.43%)</title><rect x="635.5" y="437" width="5.0" height="15.0" fill="rgb(216,51,12)" rx="2" ry="2" />
<text  x="638.47" y="447.5" ></text>
</g>
<g >
<title>openaux (1,192,515 samples, 0.01%)</title><rect x="736.3" y="389" width="0.1" height="15.0" fill="rgb(252,217,52)" rx="2" ry="2" />
<text  x="739.31" y="399.5" ></text>
</g>
<g >
<title>[[kernel.kallsyms]] (88,349,393 samples, 0.83%)</title><rect x="714.9" y="309" width="9.8" height="15.0" fill="rgb(213,39,9)" rx="2" ry="2" />
<text  x="717.89" y="319.5" ></text>
</g>
<g >
<title>[[kernel.kallsyms]] (114,489,162 samples, 1.08%)</title><rect x="712.0" y="405" width="12.7" height="15.0" fill="rgb(213,39,9)" rx="2" ry="2" />
<text  x="714.97" y="415.5" ></text>
</g>
<g >
<title>[[kernel.kallsyms]] (2,472,875,403 samples, 23.35%)</title><rect x="359.8" y="341" width="275.5" height="15.0" fill="rgb(213,39,9)" rx="2" ry="2" />
<text  x="362.85" y="351.5" >[[kernel.kallsyms]]</text>
</g>
<g >
<title>[[kernel.kallsyms]] (1,136,680 samples, 0.01%)</title><rect x="10.0" y="325" width="0.1" height="15.0" fill="rgb(213,39,9)" rx="2" ry="2" />
<text  x="13.00" y="335.5" ></text>
</g>
<g >
<title>all (10,591,726,528 samples, 100%)</title><rect x="10.0" y="517" width="1180.0" height="15.0" fill="rgb(213,39,9)" rx="2" ry="2" />
<text  x="13.00" y="527.5" ></text>
</g>
<g >
<title>[[kernel.kallsyms]] (2,695,546,361 samples, 25.45%)</title><rect x="335.0" y="373" width="300.3" height="15.0" fill="rgb(213,39,9)" rx="2" ry="2" />
<text  x="338.04" y="383.5" >[[kernel.kallsyms]]</text>
</g>
<g >
<title>[[kernel.kallsyms]] (92,335,771 samples, 0.87%)</title><rect x="699.3" y="53" width="10.3" height="15.0" fill="rgb(213,39,9)" rx="2" ry="2" />
<text  x="702.29" y="63.5" ></text>
</g>
</g>
</svg>
